<?xml version="1.0" encoding="UTF-8" standalone="no"?>
<!-- Created with Inkscape (http://www.inkscape.org/) -->

<svg
   xmlns:dc="http://purl.org/dc/elements/1.1/"
   xmlns:cc="http://creativecommons.org/ns#"
   xmlns:rdf="http://www.w3.org/1999/02/22-rdf-syntax-ns#"
   xmlns:svg="http://www.w3.org/2000/svg"
   xmlns="http://www.w3.org/2000/svg"
   xmlns:sodipodi="http://sodipodi.sourceforge.net/DTD/sodipodi-0.dtd"
   xmlns:inkscape="http://www.inkscape.org/namespaces/inkscape"
   width="210mm"
   height="297mm"
   viewBox="0 0 210 297"
   version="1.1"
   id="svg8"
   inkscape:version="0.92.1 r15371"
   sodipodi:docname="kolback_26_helles.svg"
   inkscape:export-filename="/home/tom/kolback.svg.png"
   inkscape:export-xdpi="121.83049"
   inkscape:export-ydpi="121.83049">
  <defs
     id="defs2" />
  <sodipodi:namedview
     id="base"
     pagecolor="#ffffff"
     bordercolor="#666666"
     borderopacity="1.0"
     inkscape:pageopacity="0.0"
     inkscape:pageshadow="2"
     inkscape:zoom="1.8661923"
     inkscape:cx="371.40421"
     inkscape:cy="913.05137"
     inkscape:document-units="mm"
     inkscape:current-layer="layer1"
     showgrid="false"
     inkscape:window-width="1920"
     inkscape:window-height="1146"
     inkscape:window-x="0"
     inkscape:window-y="26"
     inkscape:window-maximized="1"
     showguides="true"
     inkscape:measure-start="91.442,1040.7"
     inkscape:measure-end="122.89,1041.18"
     inkscape:snap-bbox="true"
     inkscape:snap-bbox-midpoints="false"
     inkscape:snap-global="false"
     inkscape:bbox-paths="true"
     inkscape:bbox-nodes="true"
     inkscape:guide-bbox="true"
     inkscape:object-paths="true">
    <inkscape:grid
       type="xygrid"
       id="grid4517" />
    <sodipodi:guide
       position="0,0"
       orientation="0,793.70079"
       id="guide4639"
       inkscape:locked="false" />
    <sodipodi:guide
       position="210,0"
       orientation="-1122.5197,0"
       id="guide4641"
       inkscape:locked="false" />
    <sodipodi:guide
       position="210,297"
       orientation="0,-793.70079"
       id="guide4643"
       inkscape:locked="false" />
    <sodipodi:guide
       position="0,297"
       orientation="1122.5197,0"
       id="guide4645"
       inkscape:locked="false" />
    <sodipodi:guide
       position="0,297"
       inkscape:color="rgb(167,0,255)"
       inkscape:label="Measure"
       orientation="1.00838e-13,1"
       id="guide4647"
       inkscape:locked="false" />
    <sodipodi:guide
       position="0,297"
       inkscape:color="rgb(167,0,255)"
       inkscape:label=""
       orientation="-0,1"
       id="guide4649"
       inkscape:locked="false" />
    <sodipodi:guide
       position="0,297"
       inkscape:color="rgb(167,0,255)"
       inkscape:label="Start"
       orientation="-1,6.12323e-17"
       id="guide4651"
       inkscape:locked="false" />
    <sodipodi:guide
       position="105,297"
       inkscape:color="rgb(167,0,255)"
       inkscape:label="End"
       orientation="-0,1"
       id="guide4653"
       inkscape:locked="false" />
    <sodipodi:guide
       position="105,297"
       inkscape:color="rgb(167,0,255)"
       inkscape:label=""
       orientation="-1,6.12323e-17"
       id="guide4655"
       inkscape:locked="false" />
    <sodipodi:guide
       position="0,297"
       inkscape:color="rgb(167,0,255)"
       inkscape:label="Measure"
       orientation="1,6.12323e-17"
       id="guide4657"
       inkscape:locked="false" />
    <sodipodi:guide
       position="0,297"
       inkscape:color="rgb(167,0,255)"
       inkscape:label=""
       orientation="-0,1"
       id="guide4659"
       inkscape:locked="false" />
    <sodipodi:guide
       position="0,297"
       inkscape:color="rgb(167,0,255)"
       inkscape:label="Start"
       orientation="-1,6.12323e-17"
       id="guide4661"
       inkscape:locked="false" />
    <sodipodi:guide
       position="0,147.5"
       inkscape:color="rgb(167,0,255)"
       inkscape:label="End"
       orientation="-0,1"
       id="guide4663"
       inkscape:locked="false" />
    <sodipodi:guide
       position="0,147.5"
       inkscape:color="rgb(167,0,255)"
       inkscape:label=""
       orientation="-1,6.12323e-17"
       id="guide4665"
       inkscape:locked="false" />
    <sodipodi:guide
       position="157.5,222.25"
       inkscape:color="rgb(167,0,255)"
       inkscape:label=""
       orientation="-0,1"
       id="guide4693"
       inkscape:locked="false" />
    <sodipodi:guide
       position="0,73.75"
       inkscape:color="rgb(167,0,255)"
       inkscape:label="End"
       orientation="-0,1"
       id="guide4697"
       inkscape:locked="false" />
    <sodipodi:guide
       position="105,297"
       inkscape:color="rgb(167,0,255)"
       inkscape:label="Measure"
       orientation="1,-1.81464e-14"
       inkscape:locked="false"
       id="guide4709" />
    <sodipodi:guide
       position="105,297"
       inkscape:color="rgb(167,0,255)"
       inkscape:label=""
       orientation="-0,1"
       inkscape:locked="false"
       id="guide4713" />
    <sodipodi:guide
       position="105,297"
       inkscape:color="rgb(167,0,255)"
       inkscape:label="Start"
       orientation="-1,6.12323e-17"
       inkscape:locked="false"
       id="guide4715" />
    <sodipodi:guide
       position="105,292.009"
       inkscape:color="rgb(167,0,255)"
       inkscape:label="End"
       orientation="-0,1"
       inkscape:locked="false"
       id="guide4717" />
    <sodipodi:guide
       position="105,292.009"
       inkscape:color="rgb(167,0,255)"
       inkscape:label=""
       orientation="-1,6.12323e-17"
       inkscape:locked="false"
       id="guide4719" />
    <sodipodi:guide
       position="23.896552,231.18105"
       orientation="0,1"
       id="guide4579"
       inkscape:locked="false" />
    <sodipodi:guide
       position="6.3499998,168.53959"
       orientation="1,0"
       id="guide5518"
       inkscape:locked="false" />
    <sodipodi:guide
       position="95.514581,5.5562501"
       orientation="0,1"
       id="guide5520"
       inkscape:locked="false" />
    <sodipodi:guide
       position="203.46458,24.341667"
       orientation="1,0"
       id="guide5522"
       inkscape:locked="false" />
  </sodipodi:namedview>
  <metadata
     id="metadata5">
    <rdf:RDF>
      <cc:Work
         rdf:about="">
        <dc:format>image/svg+xml</dc:format>
        <dc:type
           rdf:resource="http://purl.org/dc/dcmitype/StillImage" />
        <dc:title />
      </cc:Work>
    </rdf:RDF>
  </metadata>
  <g
     inkscape:label="Layer 1"
     inkscape:groupmode="layer"
     id="layer1"
     style="display:inline">
    <text
       inkscape:export-ydpi="121.83049"
       inkscape:export-xdpi="121.83049"
       id="text4887"
       y="-12.119767"
       x="-173.61279"
       style="font-style:normal;font-variant:normal;font-weight:normal;font-stretch:normal;font-size:10.41263485px;line-height:125%;font-family:Birdy;-inkscape-font-specification:Birdy;letter-spacing:0px;word-spacing:0px;fill:#000000;fill-opacity:1;stroke:none;stroke-width:0.26031587px;stroke-linecap:butt;stroke-linejoin:miter;stroke-opacity:1"
       xml:space="preserve"><tspan
         style="stroke-width:0.26031587px"
         y="-3.0087135"
         x="-173.61279"
         id="tspan4885"
         sodipodi:role="line" /></text>
    <text
       xml:space="preserve"
       style="font-style:normal;font-variant:normal;font-weight:normal;font-stretch:normal;font-size:10.41263485px;line-height:125%;font-family:Birdy;-inkscape-font-specification:Birdy;letter-spacing:0px;word-spacing:0px;fill:#000000;fill-opacity:1;stroke:none;stroke-width:0.26031587px;stroke-linecap:butt;stroke-linejoin:miter;stroke-opacity:1"
       x="-68.965813"
       y="-12.119767"
       id="text4891"
       inkscape:export-xdpi="121.83049"
       inkscape:export-ydpi="121.83049"><tspan
         sodipodi:role="line"
         id="tspan4889"
         x="-68.965813"
         y="-3.0087135"
         style="stroke-width:0.26031587px" /></text>
    <text
       xml:space="preserve"
       style="font-style:normal;font-variant:normal;font-weight:normal;font-stretch:normal;font-size:10.41263485px;line-height:125%;font-family:Birdy;-inkscape-font-specification:Birdy;letter-spacing:0px;word-spacing:0px;fill:#000000;fill-opacity:1;stroke:none;stroke-width:0.26031587px;stroke-linecap:butt;stroke-linejoin:miter;stroke-opacity:1"
       x="-72.012787"
       y="-12.119767"
       id="text4895"
       inkscape:export-xdpi="121.83049"
       inkscape:export-ydpi="121.83049"><tspan
         sodipodi:role="line"
         id="tspan4893"
         x="-72.012787"
         y="-3.0087135"
         style="stroke-width:0.26031587px" /></text>
    <text
       inkscape:export-ydpi="121.83049"
       inkscape:export-xdpi="121.83049"
       id="text4899"
       y="-12.119767"
       x="32.634193"
       style="font-style:normal;font-variant:normal;font-weight:normal;font-stretch:normal;font-size:10.41263485px;line-height:125%;font-family:Birdy;-inkscape-font-specification:Birdy;letter-spacing:0px;word-spacing:0px;fill:#000000;fill-opacity:1;stroke:none;stroke-width:0.26031587px;stroke-linecap:butt;stroke-linejoin:miter;stroke-opacity:1"
       xml:space="preserve"><tspan
         style="stroke-width:0.26031587px"
         y="-3.0087135"
         x="32.634193"
         id="tspan4897"
         sodipodi:role="line" /></text>
    <text
       xml:space="preserve"
       style="font-style:normal;font-variant:normal;font-weight:normal;font-stretch:normal;font-size:10.58333302px;line-height:125%;font-family:Birdy;-inkscape-font-specification:Birdy;letter-spacing:0px;word-spacing:0px;fill:#000000;fill-opacity:1;stroke:none;stroke-width:0.26458332px;stroke-linecap:butt;stroke-linejoin:miter;stroke-opacity:1"
       x="37.49398"
       y="-32.83305"
       id="text4903"
       inkscape:export-xdpi="121.83049"
       inkscape:export-ydpi="121.83049"><tspan
         sodipodi:role="line"
         id="tspan4901"
         x="37.49398"
         y="-23.572632"
         style="stroke-width:0.26458332px" /></text>
    <path
       style="opacity:1;fill:#fee02e;fill-opacity:1;stroke-width:0.06675196"
       d="m 23.75395,34.374519 c -1.26858,-2.73229 -2.30946,-4.88357 -2.8436,-6.01674 -0.0951,-0.20193 -0.13299,-0.29283 -0.20056,-0.3914 -0.0676,-0.0986 -0.21114,-0.35866 -0.20248,-0.38859 0.0269,-0.0929 -0.60239,-1.1243 -0.87336,-1.43151 -0.15497,-0.17568 -0.45315,-0.39202 -0.74974,-0.54393 -0.43304,-0.2218 -0.55363,-0.2533 -0.9998,-0.26109 l -0.50735,-0.009 -0.43518,-0.873695 c -0.4278,-0.858911 -0.58249,-1.327393 -0.46273,-1.401408 0.0333,-0.02061 0.13944,0.08158 0.23575,0.227108 0.24936,0.376806 0.5952,0.534241 1.17358,0.534241 0.25845,0 0.46992,-0.02503 0.46992,-0.05563 0,-0.0306 0.0385,-0.05563 0.0855,-0.05563 0.12175,0 0.44852,-0.224436 0.44852,-0.30806 0,-0.03861 0.0176,-0.05261 0.0391,-0.03111 0.2745,-0.06538 0.54714,-0.579418 0.56906,-0.634294 0.17734,-0.442594 -0.28078,-1.205161 -0.68517,-1.602047 -0.17767,-0.174391 -0.34993,-0.317072 -0.38278,-0.317072 -0.0329,0 -0.10907,-0.123342 -0.16939,-0.274094 -0.0812,-0.20291 -0.0905,-0.297145 -0.036,-0.362867 -0.10125,-0.622346 -0.0608,-0.875424 0.39759,-0.398314 0.12369,0.13166 0.22272,0.16742 0.46279,0.167127 0.42084,-5.03e-4 0.76422,-0.106532 1.00719,-0.310973 0.26493,-0.22292 0.47744,-0.631613 0.39566,-0.760872 -0.0517,-0.08178 -0.0609,-0.08198 -0.0617,-0.0013 -5.1e-4,0.05201 -0.0166,0.07901 -0.0356,0.06001 -0.019,-0.019 0.024,-0.165459 0.0956,-0.325446 0.0735,-0.164211 0.11814,-0.379291 0.10245,-0.493891 -0.0172,-0.125737 0.012,-0.08017 0.0766,0.119718 0.12765,0.394352 0.21604,0.358837 0.0963,-0.0387 -0.20526,-0.681501 -0.57119,-1.103451 -1.13757,-1.311725 -0.27675,-0.101773 -0.3074,-0.136579 -0.38964,-0.44253 -0.0491,-0.182638 -0.0984,-0.512299 -0.10956,-0.73258 -0.0178,-0.351186 -0.43586,-2.110487 -0.75346,-3.170718 -0.0605,-0.201924 -0.11577,-0.427212 -0.12285,-0.500639 -0.007,-0.07343 -0.075,-0.326922 -0.15078,-0.563322 -0.0853,-0.266019 -0.1148,-0.457661 -0.0772,-0.502879 0.0364,-0.04387 0.0359,-0.112165 -9.8e-4,-0.170949 -0.034,-0.05384 -0.0619,-0.142947 -0.0619,-0.198017 0,-0.08761 0.008,-0.08786 0.0621,-0.002 0.11478,0.1815 0.16338,3.27e-4 0.0818,-0.304772 -0.0684,-0.255736 -0.065,-0.324951 0.022,-0.448431 0.10193,-0.144648 0.10278,-0.14414 0.0905,0.05424 -0.007,0.11014 0.0852,0.440563 0.20453,0.734271 0.11933,0.293709 0.29954,0.747177 0.40046,1.007706 0.10092,0.260528 0.27837,0.648852 0.39432,0.86294 0.41876,0.798865 0.739,1.67947 1.05103,2.37676 1.15506,2.574783 1.05346,2.372079 1.09777,2.190176 0.0308,-0.126575 0.0494,-0.08848 0.083,0.170862 0.0444,0.341231 0.17537,0.68538 0.59706,1.568671 0.30481,0.638422 0.65273,1.403785 0.65273,1.435848 0,0.0136 0.14643,0.334424 0.32541,0.712926 0.48352,1.022534 0.48503,0.916972 -0.021,1.471491 -0.56668,0.620899 -0.72646,1.011805 -0.73028,1.786641 -0.003,0.618431 0.0571,0.822909 0.74532,2.536579 0.46816,1.1656 0.61392,1.65841 0.78193,1.62351 0.0239,-0.005 0.0167,-0.005 0.01,0.0238 0.13423,0.83404 0.38345,1.20132 1.23453,3.0162 0.17841,0.38045 0.32438,0.69987 0.32438,0.70982 0,0.01 0.3154,0.66878 0.70089,1.46408 0.38549,0.79529 0.7009,1.45963 0.7009,1.47631 0,0.0167 -0.61598,-0.0553 -1.3579,0.0303 -0.73385,0.0847 -1.44253,0.59272 -1.44253,0.59272 0,0 0.15213,-0.69706 -0.21479,-1.31801 z m -8.76064,-9.2763 c -0.0507,-0.098 -0.37769,-0.808977 -0.72675,-1.579963 C 13.91749,22.747271 13.17482,21.1252 12.61615,19.913651 11.12964,16.68994 10.45181,15.216916 10.28167,14.840503 10.19877,14.656936 9.83828,13.875938 9.48074,13.104953 9.1232,12.333968 8.67211,11.357721 8.47833,10.935515 8.28453,10.513308 7.98014,9.855544 7.80189,9.473813 7.62366,9.092085 7.47782,8.767365 7.47782,8.752216 c 0,-0.02518 2.18209,-1.087547 2.23382,-1.087547 0.0124,0 0.28015,-0.120154 0.59506,-0.267008 0.31492,-0.146854 0.58643,-0.267008 0.60336,-0.267008 0.0169,0 0.68372,-0.287238 1.48176,-0.638306 1.64829,-0.725114 2.19182,-0.927513 2.30423,-0.858043 0.049,0.03029 0.0605,0.01957 0.0307,-0.02863 -0.1051,-0.170055 0.0942,-0.06368 0.22509,0.120144 0.12482,0.175297 0.86959,1.822321 1.3144,2.906757 0.0903,0.220281 0.22256,0.527848 0.29381,0.68348 0.0712,0.155633 0.12951,0.296121 0.12951,0.312197 0,0.01608 0.10157,0.249201 0.22571,0.518055 0.3954,0.856289 1.53058,3.622294 1.52929,3.726297 -6.9e-4,0.05507 0.0256,0.134273 0.0583,0.176007 0.0328,0.04174 0.10119,0.282042 0.15208,0.534016 0.0509,0.251974 0.14572,0.692231 0.21073,0.978348 0.0987,0.43425 0.10453,0.557981 0.0355,0.748762 -0.0593,0.164065 -0.0629,0.265594 -0.0124,0.35986 0.0387,0.07223 0.0703,0.182997 0.0703,0.246165 l 0.26405,0.626644 c 0,0 0.20239,0.372999 0.0864,0.329365 -0.45664,-0.356896 -0.5477,-0.575617 -0.58039,-0.667533 0.0191,-0.03082 -0.11435,-0.131527 -0.29643,-0.223793 -0.38473,-0.194958 -0.87543,-0.321901 -0.87543,-0.226473 0,0.03498 -0.027,0.04694 -0.0599,0.02658 -0.10378,-0.06414 -0.47411,0.04172 -0.47411,0.135516 0,0.0523 -0.0417,0.07367 -0.10013,0.05127 -0.0551,-0.02113 -0.10013,-0.0052 -0.10013,0.03548 0,0.04064 -0.0468,0.0739 -0.10408,0.0739 -0.0573,0 -0.0869,0.02787 -0.0658,0.06195 0.0211,0.03407 -0.0226,0.08129 -0.0971,0.104934 -0.0745,0.02364 -0.11739,0.07218 -0.0953,0.107857 0.022,0.03568 0.006,0.105451 -0.0347,0.155048 -0.0411,0.0496 -0.0678,0.115868 -0.0592,0.147267 0.0306,0.112183 -0.0846,0.34587 -0.19054,0.386521 -0.0961,0.03687 -0.0944,0.05127 0.0161,0.132037 0.10119,0.07399 0.111,0.119672 0.0533,0.248483 -0.0579,0.129138 -0.0368,0.22456 0.11577,0.52496 0.10581,0.208372 0.27086,0.416957 0.38167,0.48234 0.1074,0.06336 0.24375,0.213555 0.303,0.333761 0.0592,0.120206 0.10988,0.173497 0.11252,0.118427 0.003,-0.05507 0.0774,0.181034 0.16624,0.524677 0.0887,0.343645 0.1816,0.688353 0.20625,0.766023 0.0394,0.123936 0.0163,0.11691 -0.18779,-0.05741 -0.12794,-0.109247 -0.28981,-0.237617 -0.35973,-0.285268 -0.12321,-0.08397 -0.12301,-0.0854 0.007,-0.04646 0.11882,0.03576 0.12249,0.02909 0.0333,-0.06068 -0.1155,-0.116351 -0.93452,-0.195447 -0.93452,-0.09025 0,0.03627 -0.0601,0.05026 -0.13351,0.03105 -0.0734,-0.01921 -0.1335,-0.0097 -0.1335,0.02109 0,0.03081 -0.0566,0.07397 -0.12573,0.09591 -0.17699,0.05618 -0.54179,0.417793 -0.54179,0.537063 0,0.05475 -0.0318,0.09955 -0.0706,0.09955 -0.0389,0 -0.0509,0.032 -0.0268,0.0711 0.0286,0.04632 0.0925,0.02889 0.18331,-0.05007 0.0766,-0.06664 0.0382,0.007 -0.0854,0.163626 -0.17924,0.227079 -0.22356,0.342059 -0.21869,0.567392 0.01,0.438736 0.0852,0.697455 0.25893,0.884937 0.0878,0.09471 0.15958,0.187807 0.15958,0.206894 0,0.05972 0.20014,0.237941 0.20229,0.180128 9.8e-4,-0.03016 0.0331,-0.0015 0.0708,0.06339 0.0379,0.06502 0.09,0.105129 0.11589,0.08913 0.0259,-0.016 0.14644,0.05202 0.26788,0.15114 0.17097,0.139534 0.24972,0.2844 0.34876,0.641568 0.0838,0.302446 0.10436,0.475896 0.0595,0.503626 -0.10065,0.0622 -2e-4,0.26783 0.16233,0.33233 0.0874,0.0347 -0.1703,0.0559 -0.67788,0.0558 l -0.81879,-1.4e-4 -0.0921,-0.17817 z m -0.46802,-7.497224 c 0.46258,-0.231021 0.68518,-0.472071 0.70866,-0.767395 0.0152,-0.190367 0.0553,-0.267287 0.15399,-0.29489 0.11279,-0.03155 0.13138,-0.0879 0.11989,-0.363261 -0.009,-0.206353 -0.0638,-0.393689 -0.1502,-0.510657 -0.0751,-0.101606 -0.13658,-0.210101 -0.13658,-0.241099 0,-0.031 -0.10965,-0.159877 -0.24366,-0.286399 -0.1444,-0.136335 -0.22683,-0.182454 -0.20235,-0.113223 0.0558,0.15773 0.032,0.148753 -0.20428,-0.07701 -0.28718,-0.27445 -0.82837,-0.389046 -1.31889,-0.279271 -0.20192,0.04519 -0.36714,0.104481 -0.36714,0.131763 0,0.02728 -0.10513,0.09974 -0.23363,0.161012 -0.41517,0.172451 -0.34973,0.532136 -0.34973,0.532136 -0.0455,-0.0016 -0.0682,0.02051 -0.0505,0.04924 0.0177,0.02872 -0.0145,0.07018 -0.0717,0.09212 -0.0572,0.02194 -0.0853,0.07015 -0.0625,0.107122 0.0228,0.03697 -0.004,0.06722 -0.0603,0.06722 -0.0836,0 -0.0763,0.04329 0.0414,0.242774 0.0788,0.133525 0.14605,0.306999 0.14948,0.3855 0.006,0.133071 0.2597,0.606806 0.45254,0.844454 0.0465,0.05737 0.20426,0.185035 0.35045,0.283695 0.35314,0.238313 1.03657,0.255071 1.47487,0.03617 z m -0.22653,-3.609354 c -0.11419,-0.114202 -0.0983,-0.150898 0.0712,-0.164232 0.0826,-0.0065 0.25533,-0.02574 0.38383,-0.04275 0.12849,-0.01701 0.2862,-0.03423 0.35044,-0.03825 0.0643,-0.004 0.11682,-0.05559 0.11682,-0.114587 0,-0.05985 0.0379,-0.09275 0.0856,-0.07442 0.10635,0.04081 0.4057,-0.192653 0.35409,-0.276151 -0.0208,-0.03358 0.0119,-0.102004 0.0725,-0.152056 0.0606,-0.05005 0.16629,-0.217401 0.23478,-0.371884 0.086,-0.193882 0.15492,-0.269223 0.22263,-0.243241 0.0726,0.02788 0.0943,-0.0075 0.0837,-0.136319 -0.008,-0.09568 -0.0367,-0.17396 -0.064,-0.17396 -0.0272,0 -0.0853,-0.119326 -0.12897,-0.265172 -0.0437,-0.145844 -0.13619,-0.326074 -0.20553,-0.400511 -0.0694,-0.07444 -0.11127,-0.135339 -0.0932,-0.135339 0.0181,0 -0.0424,-0.07535 -0.13451,-0.167441 -0.12041,-0.115255 -0.18071,-0.49288 -0.36788,-0.395384 -0.0505,0.03121 -0.0625,0.02112 -0.0326,-0.02734 0.0283,-0.04586 -0.0212,-0.10809 -0.1232,-0.154531 -0.0939,-0.04276 -0.17065,-0.10354 -0.17065,-0.13506 0,-0.03152 -0.0718,-0.03929 -0.15959,-0.01726 -0.0878,0.02203 -0.17774,0.01071 -0.1999,-0.02516 -0.0261,-0.04226 -0.12854,-0.04253 -0.29098,-7.76e-4 -0.13787,0.03544 -0.32524,0.08221 -0.41638,0.103926 -0.0911,0.02171 -0.20765,0.08143 -0.25893,0.132699 -0.0513,0.05127 -0.1344,0.07741 -0.18473,0.0581 -0.0898,-0.03448 -0.11029,0.01117 -0.10937,0.244386 2.7e-4,0.07201 -0.0502,0.116815 -0.1315,0.116815 -0.0929,0 -0.11996,0.03125 -0.0914,0.105588 0.0222,0.05808 0.0405,0.136847 0.0405,0.175053 l -0.0167,0.269544 c -0.0275,-0.0089 -0.0501,0.01062 -0.0501,0.04335 0,0.03273 -0.0708,0.07728 -0.15736,0.09901 -0.2242,0.05627 -0.21028,0.404958 0.0204,0.510295 0.12823,0.05856 0.14328,0.08705 0.0699,0.132384 -0.0515,0.03177 -0.11742,0.04296 -0.14671,0.02485 -0.0832,-0.05146 -0.0638,0.02662 0.0738,0.2947 0.2343,0.456915 0.75844,1.003588 1.01429,1.057879 0.0953,0.02024 0.21395,0.09308 0.26354,0.161891 0.0496,0.0688 0.10474,0.110526 0.12256,0.09271 0.0178,-0.01781 -0.003,-0.06794 -0.0466,-0.111381 z m 3.0372,-2.000611 c -0.0213,-0.05325 -0.0371,-0.03744 -0.0403,0.04033 -0.003,0.07037 0.0129,0.109793 0.035,0.08761 0.0221,-0.02218 0.0246,-0.07975 0.005,-0.127941 z"
       id="path4905"
       inkscape:connector-curvature="0"
       sodipodi:nodetypes="ccccsccccccsssscccsccccsccccsccscccccccsccscsccccscscccccccsccscccssssssssssscccccssccsccccccccscscssccccccccscsccccsccscscsscscscsccccscccccccccscsccscscccccsccccsccccsccccccsccscccsscccccccscccsscccscsscccccccc"
       inkscape:export-xdpi="121.83049"
       inkscape:export-ydpi="121.83049" />
    <text
       xml:space="preserve"
       style="font-style:normal;font-variant:normal;font-weight:normal;font-stretch:normal;font-size:17.18046379px;line-height:125%;font-family:Birdy;-inkscape-font-specification:Birdy;letter-spacing:0px;word-spacing:0px;fill:#000000;fill-opacity:1;stroke:none;stroke-width:0.42951161px;stroke-linecap:butt;stroke-linejoin:miter;stroke-opacity:1"
       x="28.909506"
       y="30.74752"
       id="text4909"
       inkscape:export-xdpi="121.83049"
       inkscape:export-ydpi="121.83049"><tspan
         sodipodi:role="line"
         id="tspan4907"
         x="28.909506"
         y="30.74752"
         style="stroke-width:0.42951161px">Kolbacks</tspan></text>
    <text
       xml:space="preserve"
       style="font-style:normal;font-variant:normal;font-weight:normal;font-stretch:normal;font-size:10.41263485px;line-height:125%;font-family:sans-serif;-inkscape-font-specification:sans-serif;letter-spacing:0px;word-spacing:0px;fill:#000000;fill-opacity:1;stroke:none;stroke-width:0.26031587px;stroke-linecap:butt;stroke-linejoin:miter;stroke-opacity:1"
       x="42.076118"
       y="45.747528"
       id="text4913"
       inkscape:export-xdpi="121.83049"
       inkscape:export-ydpi="121.83049"><tspan
         sodipodi:role="line"
         id="tspan4911"
         x="42.076118"
         y="45.747528"
         style="font-style:normal;font-variant:normal;font-weight:normal;font-stretch:normal;font-size:12.69999981px;font-family:Amiri;-inkscape-font-specification:Amiri;stroke-width:0.26031587px">Helles</tspan></text>
    <path
       style="opacity:1;fill:#fee02e;fill-opacity:1;stroke:none;stroke-width:3.52883315;stroke-linecap:round;stroke-linejoin:round;stroke-miterlimit:4;stroke-dasharray:none;stroke-opacity:1"
       d="m 24.6318,33.140549 h 65.01189 c 0,0 -0.63866,1.16094 0,1.95926 -0.7185,-0.0399 -1.7296,0 -1.7296,0 H 24.6318 Z"
       id="path4915"
       inkscape:connector-curvature="0"
       sodipodi:nodetypes="cccccc"
       inkscape:export-xdpi="121.83049"
       inkscape:export-ydpi="121.83049" />
    <text
       xml:space="preserve"
       style="font-style:normal;font-variant:normal;font-weight:normal;font-stretch:normal;font-size:2.47593689px;line-height:125%;font-family:Viga;-inkscape-font-specification:'Viga, Normal';font-variant-ligatures:normal;font-variant-caps:normal;font-variant-numeric:normal;font-feature-settings:normal;text-align:end;letter-spacing:0px;word-spacing:0px;writing-mode:lr-tb;text-anchor:end;fill:#000000;fill-opacity:1;stroke:none;stroke-width:0.23211908px;stroke-linecap:butt;stroke-linejoin:miter;stroke-opacity:1"
       x="101.33703"
       y="52.22438"
       id="text4927"
       inkscape:export-xdpi="121.83049"
       inkscape:export-ydpi="121.83049"><tspan
         sodipodi:role="line"
         x="101.33703"
         y="52.22438"
         style="font-style:normal;font-variant:normal;font-weight:normal;font-stretch:normal;font-size:2.47593689px;font-family:Viga;-inkscape-font-specification:'Viga, Normal';font-variant-ligatures:normal;font-variant-caps:normal;font-variant-numeric:normal;font-feature-settings:normal;text-align:end;writing-mode:lr-tb;text-anchor:end;stroke-width:0.23211908px"
         id="tspan4917">Alk: 5,3 %Vol</tspan><tspan
         sodipodi:role="line"
         x="101.33703"
         y="55.319302"
         style="font-style:normal;font-variant:normal;font-weight:normal;font-stretch:normal;font-size:2.47593689px;font-family:Viga;-inkscape-font-specification:'Viga, Normal';font-variant-ligatures:normal;font-variant-caps:normal;font-variant-numeric:normal;font-feature-settings:normal;text-align:end;writing-mode:lr-tb;text-anchor:end;stroke-width:0.23211908px"
         id="tspan4919">Beska: 22 IBU</tspan><tspan
         sodipodi:role="line"
         x="101.33703"
         y="58.414223"
         style="font-style:normal;font-variant:normal;font-weight:normal;font-stretch:normal;font-size:2.47593689px;font-family:Viga;-inkscape-font-specification:'Viga, Normal';font-variant-ligatures:normal;font-variant-caps:normal;font-variant-numeric:normal;font-feature-settings:normal;text-align:end;writing-mode:lr-tb;text-anchor:end;stroke-width:0.23211908px"
         id="tspan4921">Vörtstyrka: 13°P</tspan><tspan
         sodipodi:role="line"
         x="101.33703"
         y="61.509144"
         style="font-style:normal;font-variant:normal;font-weight:normal;font-stretch:normal;font-size:2.47593689px;font-family:Viga;-inkscape-font-specification:'Viga, Normal';font-variant-ligatures:normal;font-variant-caps:normal;font-variant-numeric:normal;font-feature-settings:normal;text-align:end;writing-mode:lr-tb;text-anchor:end;stroke-width:0.23211908px"
         id="tspan4923">Jäst: L17 vid 11°C</tspan><tspan
         id="tspan4925"
         sodipodi:role="line"
         x="101.33703"
         y="64.604065"
         style="font-style:normal;font-variant:normal;font-weight:normal;font-stretch:normal;font-size:2.47593689px;font-family:Viga;-inkscape-font-specification:'Viga, Normal';font-variant-ligatures:normal;font-variant-caps:normal;font-variant-numeric:normal;font-feature-settings:normal;text-align:end;writing-mode:lr-tb;text-anchor:end;stroke-width:0.23211908px">Sats #26, 2018-01-04</tspan></text>
    <text
       id="text4939"
       y="53.997826"
       x="6.6221838"
       style="font-style:normal;font-variant:normal;font-weight:normal;font-stretch:normal;font-size:2.42834592px;line-height:125%;font-family:Viga;-inkscape-font-specification:'Viga, Normal';font-variant-ligatures:normal;font-variant-caps:normal;font-variant-numeric:normal;font-feature-settings:normal;text-align:justify;letter-spacing:0px;word-spacing:0px;writing-mode:lr-tb;text-anchor:start;fill:#000000;fill-opacity:1;stroke:none;stroke-width:0.22765669px;stroke-linecap:butt;stroke-linejoin:miter;stroke-opacity:1"
       xml:space="preserve"
       inkscape:export-xdpi="121.83049"
       inkscape:export-ydpi="121.83049"
       transform="scale(1.0214745,0.97897696)"><tspan
         y="53.997826"
         x="6.6221838"
         id="tspan4929"
         sodipodi:role="line">En klassisk lager-öl i stil med originalen från</tspan><tspan
         y="57.033257"
         x="6.6221838"
         id="tspan4933"
         sodipodi:role="line">München. Huvudingredienserna är Pilsner</tspan><tspan
         y="60.068691"
         x="6.6221838"
         sodipodi:role="line"
         id="tspan4935">malt och humlen Hallerthauer Mittelfrüh.</tspan><tspan
         y="63.104122"
         x="6.6221838"
         id="tspan4937"
         sodipodi:role="line">Inte lika besk som en Pilsner och gjort med</tspan><tspan
         y="66.139557"
         x="6.6221838"
         sodipodi:role="line"
         id="tspan4832">jäst från Augustiner-bryggeriet.</tspan></text>
    <text
       xml:space="preserve"
       style="font-style:normal;font-variant:normal;font-weight:normal;font-stretch:normal;font-size:3.0743556px;line-height:125%;font-family:Viga;-inkscape-font-specification:'Viga, Normal';font-variant-ligatures:normal;font-variant-caps:normal;font-variant-numeric:normal;font-feature-settings:normal;text-align:justify;letter-spacing:0px;word-spacing:0px;writing-mode:lr-tb;text-anchor:start;fill:#d7cb7e;fill-opacity:1;stroke:none;stroke-width:0.33462843px;stroke-linecap:butt;stroke-linejoin:miter;stroke-opacity:1"
       x="10.412315"
       y="72.051552"
       id="text4943"
       inkscape:export-xdpi="121.83049"
       inkscape:export-ydpi="121.83049"
       transform="scale(1.0356096,0.96561484)"><tspan
         sodipodi:role="line"
         id="tspan4941"
         x="10.412315"
         y="72.051552"
         style="fill:#d7cb7e;fill-opacity:1;stroke-width:0.33462843px">Hälls med fördel upp utan att flaskans bottensats följer med.</tspan></text>
    <g
       aria-label="T"
       style="font-style:normal;font-variant:normal;font-weight:normal;font-stretch:normal;font-size:10.58333302px;line-height:125%;font-family:Birdy;-inkscape-font-specification:Birdy;letter-spacing:0px;word-spacing:0px;fill:#000000;fill-opacity:1;stroke:none;stroke-width:0.26458332px;stroke-linecap:butt;stroke-linejoin:miter;stroke-opacity:1"
       id="g4947"
       transform="matrix(1.1887187,0,0,1.2798825,-15.036308,5.825212)"
       inkscape:export-xdpi="121.83049"
       inkscape:export-ydpi="121.83049">
      <path
         d="m 61.813793,11.436186 1.225116,0.345526 0.306917,-0.79375 -0.22225,0.0635 -1.005417,-0.28575 -0.665177,1.465286 c 0.698498,0.197553 0.453511,0.136325 1.15201,0.33388 0.07408,0.02117 0.127,0 0.15875,-0.07408 l 0.232834,-0.592666 -1.235374,-0.346096"
         style="stroke-width:0.26458332px"
         id="path4945"
         inkscape:connector-curvature="0"
         sodipodi:nodetypes="cccccccccc" />
    </g>
    <g
       transform="matrix(-1.1887187,0,0,-1.2798825,135.83062,35.695589)"
       id="g4951"
       style="font-style:normal;font-variant:normal;font-weight:normal;font-stretch:normal;font-size:10.58333302px;line-height:125%;font-family:Birdy;-inkscape-font-specification:Birdy;letter-spacing:0px;word-spacing:0px;fill:#000000;fill-opacity:1;stroke:none;stroke-width:0.26458332px;stroke-linecap:butt;stroke-linejoin:miter;stroke-opacity:1"
       aria-label="T"
       inkscape:export-xdpi="121.83049"
       inkscape:export-ydpi="121.83049">
      <path
         sodipodi:nodetypes="cccccccccc"
         inkscape:connector-curvature="0"
         id="path4949"
         style="stroke-width:0.26458332px"
         d="m 61.813793,11.436186 1.225116,0.345526 0.306917,-0.79375 -0.22225,0.0635 -1.005417,-0.28575 -0.665177,1.465286 c 0.698498,0.197553 0.453511,0.136325 1.15201,0.33388 0.07408,0.02117 0.127,0 0.15875,-0.07408 l 0.232834,-0.592666 -1.235374,-0.346096" />
    </g>
  </g>
</svg>
